# xmcd CD database file
#
# Track frame offsets:
#	150
#	16491
#	59676
#	89295
#	123942
#	153821
#	172462
#	204133
#	233601
#
# Disc length: 3519 seconds
#
# Revision: 0
# Processed by: cddbd v1.5PL3 Copyright (c) Steve Scherf et al.
# Submitted via: CDex 1.51
#
DISCID=6e0dbd09
DTITLE=Nicolas Thys Trio - In my tree
DYEAR=2003
DGENRE=Jazz
TTITLE0=Borhãn
TTITLE1=Acceptance
TTITLE2=I'm calling you
TTITLE3=Bordeline
TTITLE4=Lawn
TTITLE5=Alice et Mamy
TTITLE6=Blessed and sinful
TTITLE7=Easy
TTITLE8=Old man
EXTD=YEAR: 2003
EXTT0=
EXTT1=
EXTT2=
EXTT3=
EXTT4=
EXTT5=
EXTT6=
EXTT7=
EXTT8=
PLAYORDER=
